<mxfile host="Electron" modified="2023-10-15T19:10:42.943Z" agent="Mozilla/5.0 (Windows NT 10.0; Win64; x64) AppleWebKit/537.36 (KHTML, like Gecko) draw.io/21.6.8 Chrome/114.0.5735.289 Electron/25.5.0 Safari/537.36" etag="ZbAI3Ton0pHIYyREq9xv" version="21.6.8" type="device">
  <diagram name="Page-1" id="Jd4SDQ5i5Yolw_LNj9nM">
    <mxGraphModel dx="5653" dy="2047" grid="1" gridSize="10" guides="1" tooltips="1" connect="1" arrows="1" fold="1" page="1" pageScale="1" pageWidth="1100" pageHeight="1700" math="0" shadow="0">
      <root>
        <mxCell id="0" />
        <mxCell id="1" parent="0" />
        <mxCell id="WzEfYEzArjelbR6HCkgn-1" value="review" style="rounded=0;whiteSpace=wrap;html=1;" parent="1" vertex="1">
          <mxGeometry x="545" y="1880" width="120" height="60" as="geometry" />
        </mxCell>
        <mxCell id="WzEfYEzArjelbR6HCkgn-2" value="rating" style="ellipse;whiteSpace=wrap;html=1;" parent="1" vertex="1">
          <mxGeometry x="480" y="1980" width="79" height="54" as="geometry" />
        </mxCell>
        <mxCell id="WzEfYEzArjelbR6HCkgn-3" value="&lt;u&gt;ssn&lt;/u&gt;" style="ellipse;whiteSpace=wrap;html=1;" parent="1" vertex="1">
          <mxGeometry x="650" y="1984" width="76" height="50" as="geometry" />
        </mxCell>
        <mxCell id="WzEfYEzArjelbR6HCkgn-6" value="" style="endArrow=none;html=1;rounded=0;entryX=0;entryY=0;entryDx=0;entryDy=0;" parent="1" source="WzEfYEzArjelbR6HCkgn-1" target="WzEfYEzArjelbR6HCkgn-3" edge="1">
          <mxGeometry width="50" height="50" relative="1" as="geometry">
            <mxPoint x="665" y="1960" as="sourcePoint" />
            <mxPoint x="735.7106781186549" y="1910" as="targetPoint" />
          </mxGeometry>
        </mxCell>
        <mxCell id="WzEfYEzArjelbR6HCkgn-7" value="" style="endArrow=none;html=1;rounded=0;entryX=1;entryY=0;entryDx=0;entryDy=0;exitX=0.25;exitY=1;exitDx=0;exitDy=0;" parent="1" source="WzEfYEzArjelbR6HCkgn-1" target="WzEfYEzArjelbR6HCkgn-2" edge="1">
          <mxGeometry width="50" height="50" relative="1" as="geometry">
            <mxPoint x="595" y="1960" as="sourcePoint" />
            <mxPoint x="675" y="1790" as="targetPoint" />
          </mxGeometry>
        </mxCell>
        <mxCell id="WzEfYEzArjelbR6HCkgn-8" value="client" style="rounded=0;whiteSpace=wrap;html=1;" parent="1" vertex="1">
          <mxGeometry x="540" y="1220" width="120" height="60" as="geometry" />
        </mxCell>
        <mxCell id="WzEfYEzArjelbR6HCkgn-9" value="L_name" style="ellipse;whiteSpace=wrap;html=1;" parent="1" vertex="1">
          <mxGeometry x="490" y="1120" width="80" height="50" as="geometry" />
        </mxCell>
        <mxCell id="WzEfYEzArjelbR6HCkgn-10" value="F_name" style="ellipse;whiteSpace=wrap;html=1;" parent="1" vertex="1">
          <mxGeometry x="410" y="1170" width="80" height="50" as="geometry" />
        </mxCell>
        <mxCell id="WzEfYEzArjelbR6HCkgn-11" value="&lt;u&gt;client_id&lt;/u&gt;" style="ellipse;whiteSpace=wrap;html=1;" parent="1" vertex="1">
          <mxGeometry x="641" y="1120" width="70" height="40" as="geometry" />
        </mxCell>
        <mxCell id="WzEfYEzArjelbR6HCkgn-12" value="email" style="ellipse;whiteSpace=wrap;html=1;" parent="1" vertex="1">
          <mxGeometry x="390" y="1240" width="80" height="40" as="geometry" />
        </mxCell>
        <mxCell id="WzEfYEzArjelbR6HCkgn-13" value="phone_number" style="ellipse;whiteSpace=wrap;html=1;" parent="1" vertex="1">
          <mxGeometry x="430" y="1320" width="100" height="40" as="geometry" />
        </mxCell>
        <mxCell id="WzEfYEzArjelbR6HCkgn-14" value="" style="endArrow=none;html=1;rounded=0;entryX=0.75;entryY=0;entryDx=0;entryDy=0;" parent="1" source="WzEfYEzArjelbR6HCkgn-11" target="WzEfYEzArjelbR6HCkgn-8" edge="1">
          <mxGeometry width="50" height="50" relative="1" as="geometry">
            <mxPoint x="485" y="1309.2893218813451" as="sourcePoint" />
            <mxPoint x="485" y="1259.2893218813451" as="targetPoint" />
          </mxGeometry>
        </mxCell>
        <mxCell id="WzEfYEzArjelbR6HCkgn-15" value="" style="endArrow=none;html=1;rounded=0;entryX=0.25;entryY=0;entryDx=0;entryDy=0;" parent="1" source="WzEfYEzArjelbR6HCkgn-9" target="WzEfYEzArjelbR6HCkgn-8" edge="1">
          <mxGeometry width="50" height="50" relative="1" as="geometry">
            <mxPoint x="580" y="1319.2893218813451" as="sourcePoint" />
            <mxPoint x="580" y="1269.2893218813451" as="targetPoint" />
          </mxGeometry>
        </mxCell>
        <mxCell id="WzEfYEzArjelbR6HCkgn-16" value="" style="endArrow=none;html=1;rounded=0;entryX=0;entryY=0;entryDx=0;entryDy=0;" parent="1" source="WzEfYEzArjelbR6HCkgn-10" target="WzEfYEzArjelbR6HCkgn-8" edge="1">
          <mxGeometry width="50" height="50" relative="1" as="geometry">
            <mxPoint x="670" y="1319.2893218813451" as="sourcePoint" />
            <mxPoint x="670" y="1269.2893218813451" as="targetPoint" />
          </mxGeometry>
        </mxCell>
        <mxCell id="WzEfYEzArjelbR6HCkgn-18" value="" style="endArrow=none;html=1;rounded=0;entryX=1;entryY=0.5;entryDx=0;entryDy=0;exitX=0;exitY=0.75;exitDx=0;exitDy=0;" parent="1" source="WzEfYEzArjelbR6HCkgn-8" target="WzEfYEzArjelbR6HCkgn-12" edge="1">
          <mxGeometry width="50" height="50" relative="1" as="geometry">
            <mxPoint x="549.72" y="1270" as="sourcePoint" />
            <mxPoint x="388.00427124746216" y="1325.8578643762685" as="targetPoint" />
          </mxGeometry>
        </mxCell>
        <mxCell id="WzEfYEzArjelbR6HCkgn-19" value="reads" style="rhombus;whiteSpace=wrap;html=1;" parent="1" vertex="1">
          <mxGeometry x="700" y="1760" width="80" height="80" as="geometry" />
        </mxCell>
        <mxCell id="WzEfYEzArjelbR6HCkgn-20" value="" style="endArrow=none;html=1;rounded=0;exitX=0.5;exitY=1;exitDx=0;exitDy=0;entryX=0.5;entryY=0;entryDx=0;entryDy=0;" parent="1" source="uMk0zpLiCvmzPtytg0uk-31" target="WzEfYEzArjelbR6HCkgn-19" edge="1">
          <mxGeometry width="50" height="50" relative="1" as="geometry">
            <mxPoint x="790" y="1400" as="sourcePoint" />
            <mxPoint x="840" y="1350" as="targetPoint" />
          </mxGeometry>
        </mxCell>
        <mxCell id="WzEfYEzArjelbR6HCkgn-21" value="" style="endArrow=none;html=1;rounded=0;exitX=0;exitY=1;exitDx=0;exitDy=0;entryX=1;entryY=0;entryDx=0;entryDy=0;" parent="1" source="WzEfYEzArjelbR6HCkgn-19" target="WzEfYEzArjelbR6HCkgn-1" edge="1">
          <mxGeometry width="50" height="50" relative="1" as="geometry">
            <mxPoint x="960" y="1460" as="sourcePoint" />
            <mxPoint x="1010" y="1410" as="targetPoint" />
          </mxGeometry>
        </mxCell>
        <mxCell id="WzEfYEzArjelbR6HCkgn-23" value="payment" style="rounded=0;whiteSpace=wrap;html=1;" parent="1" vertex="1">
          <mxGeometry x="540" y="820" width="120" height="60" as="geometry" />
        </mxCell>
        <mxCell id="WzEfYEzArjelbR6HCkgn-24" value="&lt;u style=&quot;&quot;&gt;pay_id&lt;/u&gt;" style="ellipse;whiteSpace=wrap;html=1;" parent="1" vertex="1">
          <mxGeometry x="740" y="760" width="80" height="50" as="geometry" />
        </mxCell>
        <mxCell id="WzEfYEzArjelbR6HCkgn-25" value="total_amount" style="ellipse;whiteSpace=wrap;html=1;" parent="1" vertex="1">
          <mxGeometry x="720" y="840" width="90" height="50" as="geometry" />
        </mxCell>
        <mxCell id="WzEfYEzArjelbR6HCkgn-26" value="pay_date" style="ellipse;whiteSpace=wrap;html=1;" parent="1" vertex="1">
          <mxGeometry x="600" y="680" width="100" height="60" as="geometry" />
        </mxCell>
        <mxCell id="WzEfYEzArjelbR6HCkgn-27" value="method" style="ellipse;whiteSpace=wrap;html=1;" parent="1" vertex="1">
          <mxGeometry x="480" y="700" width="90" height="50" as="geometry" />
        </mxCell>
        <mxCell id="WzEfYEzArjelbR6HCkgn-28" value="" style="endArrow=none;html=1;rounded=0;entryX=0.667;entryY=1;entryDx=0;entryDy=0;entryPerimeter=0;exitX=0.25;exitY=0;exitDx=0;exitDy=0;" parent="1" source="WzEfYEzArjelbR6HCkgn-23" target="WzEfYEzArjelbR6HCkgn-27" edge="1">
          <mxGeometry width="50" height="50" relative="1" as="geometry">
            <mxPoint x="520" y="840" as="sourcePoint" />
            <mxPoint x="570" y="790" as="targetPoint" />
          </mxGeometry>
        </mxCell>
        <mxCell id="WzEfYEzArjelbR6HCkgn-29" value="" style="endArrow=none;html=1;rounded=0;" parent="1" source="WzEfYEzArjelbR6HCkgn-26" target="WzEfYEzArjelbR6HCkgn-23" edge="1">
          <mxGeometry width="50" height="50" relative="1" as="geometry">
            <mxPoint x="650" y="790" as="sourcePoint" />
            <mxPoint x="650" y="810.7106781186548" as="targetPoint" />
          </mxGeometry>
        </mxCell>
        <mxCell id="WzEfYEzArjelbR6HCkgn-30" value="" style="endArrow=none;html=1;rounded=0;exitX=1;exitY=0;exitDx=0;exitDy=0;entryX=0;entryY=0.5;entryDx=0;entryDy=0;" parent="1" source="WzEfYEzArjelbR6HCkgn-23" target="WzEfYEzArjelbR6HCkgn-24" edge="1">
          <mxGeometry width="50" height="50" relative="1" as="geometry">
            <mxPoint x="730" y="830" as="sourcePoint" />
            <mxPoint x="780" y="780" as="targetPoint" />
          </mxGeometry>
        </mxCell>
        <mxCell id="WzEfYEzArjelbR6HCkgn-31" value="" style="endArrow=none;html=1;rounded=0;entryX=1;entryY=0.75;entryDx=0;entryDy=0;" parent="1" source="WzEfYEzArjelbR6HCkgn-25" target="WzEfYEzArjelbR6HCkgn-23" edge="1">
          <mxGeometry width="50" height="50" relative="1" as="geometry">
            <mxPoint x="649.2893218813451" y="915" as="sourcePoint" />
            <mxPoint x="649.2893218813451" y="865" as="targetPoint" />
          </mxGeometry>
        </mxCell>
        <mxCell id="WzEfYEzArjelbR6HCkgn-32" value="pays" style="rhombus;whiteSpace=wrap;html=1;" parent="1" vertex="1">
          <mxGeometry x="560" y="970" width="80" height="80" as="geometry" />
        </mxCell>
        <mxCell id="WzEfYEzArjelbR6HCkgn-33" value="" style="endArrow=none;html=1;rounded=0;entryX=0.5;entryY=1;entryDx=0;entryDy=0;" parent="1" source="WzEfYEzArjelbR6HCkgn-8" target="WzEfYEzArjelbR6HCkgn-32" edge="1">
          <mxGeometry width="50" height="50" relative="1" as="geometry">
            <mxPoint x="560" y="1190" as="sourcePoint" />
            <mxPoint x="610" y="1140" as="targetPoint" />
          </mxGeometry>
        </mxCell>
        <mxCell id="WzEfYEzArjelbR6HCkgn-34" value="" style="endArrow=none;html=1;rounded=0;exitX=0.5;exitY=0;exitDx=0;exitDy=0;entryX=0.5;entryY=1;entryDx=0;entryDy=0;" parent="1" source="WzEfYEzArjelbR6HCkgn-32" target="WzEfYEzArjelbR6HCkgn-23" edge="1">
          <mxGeometry width="50" height="50" relative="1" as="geometry">
            <mxPoint x="920" y="990" as="sourcePoint" />
            <mxPoint x="970" y="940" as="targetPoint" />
          </mxGeometry>
        </mxCell>
        <mxCell id="WzEfYEzArjelbR6HCkgn-79" style="edgeStyle=orthogonalEdgeStyle;rounded=0;orthogonalLoop=1;jettySize=auto;html=1;entryX=0.5;entryY=0;entryDx=0;entryDy=0;" parent="1" source="WzEfYEzArjelbR6HCkgn-35" target="WzEfYEzArjelbR6HCkgn-77" edge="1">
          <mxGeometry relative="1" as="geometry" />
        </mxCell>
        <mxCell id="WzEfYEzArjelbR6HCkgn-35" value="agent" style="rounded=0;whiteSpace=wrap;html=1;" parent="1" vertex="1">
          <mxGeometry x="-20" y="820" width="120" height="60" as="geometry" />
        </mxCell>
        <mxCell id="WzEfYEzArjelbR6HCkgn-38" value="receives" style="rhombus;whiteSpace=wrap;html=1;" parent="1" vertex="1">
          <mxGeometry x="350" y="810" width="80" height="80" as="geometry" />
        </mxCell>
        <mxCell id="WzEfYEzArjelbR6HCkgn-39" value="" style="endArrow=none;html=1;rounded=0;exitX=1;exitY=0.5;exitDx=0;exitDy=0;entryX=0;entryY=0.5;entryDx=0;entryDy=0;" parent="1" source="WzEfYEzArjelbR6HCkgn-35" target="WzEfYEzArjelbR6HCkgn-38" edge="1">
          <mxGeometry width="50" height="50" relative="1" as="geometry">
            <mxPoint x="170" y="860" as="sourcePoint" />
            <mxPoint x="220" y="810" as="targetPoint" />
          </mxGeometry>
        </mxCell>
        <mxCell id="WzEfYEzArjelbR6HCkgn-40" value="" style="endArrow=classic;html=1;rounded=0;exitX=0;exitY=0.5;exitDx=0;exitDy=0;entryX=1;entryY=0.5;entryDx=0;entryDy=0;" parent="1" source="WzEfYEzArjelbR6HCkgn-23" target="WzEfYEzArjelbR6HCkgn-38" edge="1">
          <mxGeometry width="50" height="50" relative="1" as="geometry">
            <mxPoint x="510" y="850" as="sourcePoint" />
            <mxPoint x="560" y="800" as="targetPoint" />
          </mxGeometry>
        </mxCell>
        <mxCell id="WzEfYEzArjelbR6HCkgn-41" value="&lt;u&gt;agent_ID&lt;/u&gt;" style="ellipse;whiteSpace=wrap;html=1;" parent="1" vertex="1">
          <mxGeometry x="110" y="730" width="80" height="50" as="geometry" />
        </mxCell>
        <mxCell id="WzEfYEzArjelbR6HCkgn-42" value="" style="endArrow=none;html=1;rounded=0;exitX=1;exitY=0;exitDx=0;exitDy=0;entryX=0;entryY=1;entryDx=0;entryDy=0;" parent="1" source="WzEfYEzArjelbR6HCkgn-35" target="WzEfYEzArjelbR6HCkgn-41" edge="1">
          <mxGeometry width="50" height="50" relative="1" as="geometry">
            <mxPoint x="180" y="820" as="sourcePoint" />
            <mxPoint x="230" y="770" as="targetPoint" />
          </mxGeometry>
        </mxCell>
        <mxCell id="WzEfYEzArjelbR6HCkgn-43" value="F_Name" style="ellipse;whiteSpace=wrap;html=1;" parent="1" vertex="1">
          <mxGeometry x="80" y="670" width="70" height="40" as="geometry" />
        </mxCell>
        <mxCell id="WzEfYEzArjelbR6HCkgn-44" value="L_Name" style="ellipse;whiteSpace=wrap;html=1;" parent="1" vertex="1">
          <mxGeometry x="-10" y="660" width="70" height="40" as="geometry" />
        </mxCell>
        <mxCell id="WzEfYEzArjelbR6HCkgn-45" value="email" style="ellipse;whiteSpace=wrap;html=1;" parent="1" vertex="1">
          <mxGeometry x="-90" y="660" width="70" height="40" as="geometry" />
        </mxCell>
        <mxCell id="WzEfYEzArjelbR6HCkgn-46" value="license" style="ellipse;whiteSpace=wrap;html=1;" parent="1" vertex="1">
          <mxGeometry x="-140" y="710" width="80" height="40" as="geometry" />
        </mxCell>
        <mxCell id="WzEfYEzArjelbR6HCkgn-47" value="salary" style="ellipse;whiteSpace=wrap;html=1;" parent="1" vertex="1">
          <mxGeometry x="-150" y="780" width="80" height="40" as="geometry" />
        </mxCell>
        <mxCell id="WzEfYEzArjelbR6HCkgn-48" value="" style="endArrow=none;html=1;rounded=0;entryX=0;entryY=1;entryDx=0;entryDy=0;exitX=0.75;exitY=0;exitDx=0;exitDy=0;" parent="1" source="WzEfYEzArjelbR6HCkgn-35" target="WzEfYEzArjelbR6HCkgn-43" edge="1">
          <mxGeometry width="50" height="50" relative="1" as="geometry">
            <mxPoint x="10" y="770" as="sourcePoint" />
            <mxPoint x="60" y="720" as="targetPoint" />
          </mxGeometry>
        </mxCell>
        <mxCell id="WzEfYEzArjelbR6HCkgn-49" value="" style="endArrow=none;html=1;rounded=0;exitX=0.5;exitY=0;exitDx=0;exitDy=0;entryX=0.5;entryY=1;entryDx=0;entryDy=0;" parent="1" source="WzEfYEzArjelbR6HCkgn-35" target="WzEfYEzArjelbR6HCkgn-44" edge="1">
          <mxGeometry width="50" height="50" relative="1" as="geometry">
            <mxPoint x="-20" y="790" as="sourcePoint" />
            <mxPoint x="30" y="740" as="targetPoint" />
          </mxGeometry>
        </mxCell>
        <mxCell id="WzEfYEzArjelbR6HCkgn-50" value="" style="endArrow=none;html=1;rounded=0;exitX=1;exitY=1;exitDx=0;exitDy=0;entryX=0.25;entryY=0;entryDx=0;entryDy=0;" parent="1" source="WzEfYEzArjelbR6HCkgn-45" target="WzEfYEzArjelbR6HCkgn-35" edge="1">
          <mxGeometry width="50" height="50" relative="1" as="geometry">
            <mxPoint x="-50" y="790" as="sourcePoint" />
            <mxPoint y="740" as="targetPoint" />
          </mxGeometry>
        </mxCell>
        <mxCell id="WzEfYEzArjelbR6HCkgn-51" value="" style="endArrow=none;html=1;rounded=0;entryX=0;entryY=0;entryDx=0;entryDy=0;exitX=1;exitY=1;exitDx=0;exitDy=0;" parent="1" source="WzEfYEzArjelbR6HCkgn-46" target="WzEfYEzArjelbR6HCkgn-35" edge="1">
          <mxGeometry width="50" height="50" relative="1" as="geometry">
            <mxPoint x="-230" y="790" as="sourcePoint" />
            <mxPoint x="-180" y="740" as="targetPoint" />
          </mxGeometry>
        </mxCell>
        <mxCell id="WzEfYEzArjelbR6HCkgn-52" value="" style="endArrow=none;html=1;rounded=0;entryX=0;entryY=0.25;entryDx=0;entryDy=0;exitX=1;exitY=1;exitDx=0;exitDy=0;" parent="1" source="WzEfYEzArjelbR6HCkgn-47" target="WzEfYEzArjelbR6HCkgn-35" edge="1">
          <mxGeometry width="50" height="50" relative="1" as="geometry">
            <mxPoint x="-100" y="950" as="sourcePoint" />
            <mxPoint x="-50" y="900" as="targetPoint" />
          </mxGeometry>
        </mxCell>
        <mxCell id="WzEfYEzArjelbR6HCkgn-53" value="agency" style="rounded=0;whiteSpace=wrap;html=1;" parent="1" vertex="1">
          <mxGeometry x="-640" y="820" width="120" height="60" as="geometry" />
        </mxCell>
        <mxCell id="WzEfYEzArjelbR6HCkgn-54" value="email" style="ellipse;whiteSpace=wrap;html=1;" parent="1" vertex="1">
          <mxGeometry x="-790" y="710" width="80" height="50" as="geometry" />
        </mxCell>
        <mxCell id="WzEfYEzArjelbR6HCkgn-55" value="name" style="ellipse;whiteSpace=wrap;html=1;" parent="1" vertex="1">
          <mxGeometry x="-810" y="800" width="80" height="50" as="geometry" />
        </mxCell>
        <mxCell id="WzEfYEzArjelbR6HCkgn-56" value="address" style="ellipse;whiteSpace=wrap;html=1;" parent="1" vertex="1">
          <mxGeometry x="-780" y="900" width="80" height="60" as="geometry" />
        </mxCell>
        <mxCell id="WzEfYEzArjelbR6HCkgn-57" value="&lt;u&gt;agency_ID&lt;/u&gt;" style="ellipse;whiteSpace=wrap;html=1;" parent="1" vertex="1">
          <mxGeometry x="-650" y="710" width="80" height="50" as="geometry" />
        </mxCell>
        <mxCell id="WzEfYEzArjelbR6HCkgn-61" value="phone_nmb" style="ellipse;shape=doubleEllipse;whiteSpace=wrap;html=1;" parent="1" vertex="1">
          <mxGeometry x="-660" y="930" width="90" height="50" as="geometry" />
        </mxCell>
        <mxCell id="WzEfYEzArjelbR6HCkgn-62" value="" style="endArrow=none;html=1;rounded=0;entryX=0.5;entryY=0;entryDx=0;entryDy=0;" parent="1" source="WzEfYEzArjelbR6HCkgn-57" target="WzEfYEzArjelbR6HCkgn-53" edge="1">
          <mxGeometry width="50" height="50" relative="1" as="geometry">
            <mxPoint x="-610" y="810" as="sourcePoint" />
            <mxPoint x="-610" y="830.7106781186548" as="targetPoint" />
          </mxGeometry>
        </mxCell>
        <mxCell id="WzEfYEzArjelbR6HCkgn-63" value="" style="endArrow=none;html=1;rounded=0;exitX=1;exitY=1;exitDx=0;exitDy=0;entryX=0;entryY=0;entryDx=0;entryDy=0;" parent="1" source="WzEfYEzArjelbR6HCkgn-54" target="WzEfYEzArjelbR6HCkgn-53" edge="1">
          <mxGeometry width="50" height="50" relative="1" as="geometry">
            <mxPoint x="-710" y="800" as="sourcePoint" />
            <mxPoint x="-660" y="750" as="targetPoint" />
          </mxGeometry>
        </mxCell>
        <mxCell id="WzEfYEzArjelbR6HCkgn-64" value="" style="endArrow=none;html=1;rounded=0;exitX=1;exitY=1;exitDx=0;exitDy=0;" parent="1" source="WzEfYEzArjelbR6HCkgn-55" edge="1">
          <mxGeometry width="50" height="50" relative="1" as="geometry">
            <mxPoint x="-700" y="870" as="sourcePoint" />
            <mxPoint x="-640" y="850" as="targetPoint" />
          </mxGeometry>
        </mxCell>
        <mxCell id="WzEfYEzArjelbR6HCkgn-65" value="" style="endArrow=none;html=1;rounded=0;exitX=1;exitY=0;exitDx=0;exitDy=0;entryX=0;entryY=1;entryDx=0;entryDy=0;" parent="1" source="WzEfYEzArjelbR6HCkgn-56" target="WzEfYEzArjelbR6HCkgn-53" edge="1">
          <mxGeometry width="50" height="50" relative="1" as="geometry">
            <mxPoint x="-700" y="920" as="sourcePoint" />
            <mxPoint x="-650" y="870" as="targetPoint" />
          </mxGeometry>
        </mxCell>
        <mxCell id="WzEfYEzArjelbR6HCkgn-66" value="" style="endArrow=none;html=1;rounded=0;exitX=0.5;exitY=0;exitDx=0;exitDy=0;entryX=0.5;entryY=1;entryDx=0;entryDy=0;" parent="1" source="WzEfYEzArjelbR6HCkgn-61" target="WzEfYEzArjelbR6HCkgn-53" edge="1">
          <mxGeometry width="50" height="50" relative="1" as="geometry">
            <mxPoint x="-540" y="970" as="sourcePoint" />
            <mxPoint x="-490" y="920" as="targetPoint" />
          </mxGeometry>
        </mxCell>
        <mxCell id="WzEfYEzArjelbR6HCkgn-67" value="works_in" style="rhombus;whiteSpace=wrap;html=1;" parent="1" vertex="1">
          <mxGeometry x="-370" y="810" width="80" height="80" as="geometry" />
        </mxCell>
        <mxCell id="WzEfYEzArjelbR6HCkgn-68" value="" style="endArrow=none;html=1;rounded=0;strokeWidth=6;exitX=1;exitY=0.5;exitDx=0;exitDy=0;entryX=0;entryY=0.5;entryDx=0;entryDy=0;" parent="1" source="WzEfYEzArjelbR6HCkgn-53" target="WzEfYEzArjelbR6HCkgn-67" edge="1">
          <mxGeometry width="50" height="50" relative="1" as="geometry">
            <mxPoint x="-400" y="1010" as="sourcePoint" />
            <mxPoint x="-350" y="960" as="targetPoint" />
          </mxGeometry>
        </mxCell>
        <mxCell id="WzEfYEzArjelbR6HCkgn-69" value="" style="endArrow=classic;html=1;rounded=0;exitX=0;exitY=0.5;exitDx=0;exitDy=0;entryX=1;entryY=0.5;entryDx=0;entryDy=0;strokeWidth=6;" parent="1" source="WzEfYEzArjelbR6HCkgn-35" target="WzEfYEzArjelbR6HCkgn-67" edge="1">
          <mxGeometry width="50" height="50" relative="1" as="geometry">
            <mxPoint x="-190" y="940" as="sourcePoint" />
            <mxPoint x="-140" y="890" as="targetPoint" />
          </mxGeometry>
        </mxCell>
        <mxCell id="WzEfYEzArjelbR6HCkgn-80" style="edgeStyle=orthogonalEdgeStyle;rounded=0;orthogonalLoop=1;jettySize=auto;html=1;entryX=0.5;entryY=1;entryDx=0;entryDy=0;" parent="1" source="WzEfYEzArjelbR6HCkgn-70" target="WzEfYEzArjelbR6HCkgn-77" edge="1">
          <mxGeometry relative="1" as="geometry" />
        </mxCell>
        <mxCell id="WzEfYEzArjelbR6HCkgn-70" value="owner" style="rounded=0;whiteSpace=wrap;html=1;" parent="1" vertex="1">
          <mxGeometry x="-20" y="1300" width="120" height="60" as="geometry" />
        </mxCell>
        <mxCell id="WzEfYEzArjelbR6HCkgn-71" value="name" style="ellipse;whiteSpace=wrap;html=1;" parent="1" vertex="1">
          <mxGeometry x="70" y="1450" width="80" height="50" as="geometry" />
        </mxCell>
        <mxCell id="WzEfYEzArjelbR6HCkgn-72" value="&lt;u&gt;registration_number&lt;/u&gt;" style="ellipse;whiteSpace=wrap;html=1;align=center;" parent="1" vertex="1">
          <mxGeometry x="-70" y="1460" width="120" height="50" as="geometry" />
        </mxCell>
        <mxCell id="WzEfYEzArjelbR6HCkgn-73" value="phone_nmb" style="ellipse;whiteSpace=wrap;html=1;" parent="1" vertex="1">
          <mxGeometry x="150" y="1370" width="80" height="50" as="geometry" />
        </mxCell>
        <mxCell id="WzEfYEzArjelbR6HCkgn-74" value="" style="endArrow=none;html=1;rounded=0;entryX=0.25;entryY=1;entryDx=0;entryDy=0;" parent="1" source="WzEfYEzArjelbR6HCkgn-72" target="WzEfYEzArjelbR6HCkgn-70" edge="1">
          <mxGeometry width="50" height="50" relative="1" as="geometry">
            <mxPoint x="-10" y="1439.2893218813451" as="sourcePoint" />
            <mxPoint x="-10" y="1389.2893218813451" as="targetPoint" />
          </mxGeometry>
        </mxCell>
        <mxCell id="WzEfYEzArjelbR6HCkgn-75" value="" style="endArrow=none;html=1;rounded=0;entryX=0.75;entryY=1;entryDx=0;entryDy=0;exitX=0.5;exitY=0;exitDx=0;exitDy=0;" parent="1" source="WzEfYEzArjelbR6HCkgn-71" target="WzEfYEzArjelbR6HCkgn-70" edge="1">
          <mxGeometry width="50" height="50" relative="1" as="geometry">
            <mxPoint x="20" y="1470" as="sourcePoint" />
            <mxPoint x="70" y="1420" as="targetPoint" />
          </mxGeometry>
        </mxCell>
        <mxCell id="WzEfYEzArjelbR6HCkgn-76" value="" style="endArrow=none;html=1;rounded=0;exitX=1;exitY=0.75;exitDx=0;exitDy=0;entryX=0;entryY=0;entryDx=0;entryDy=0;" parent="1" source="WzEfYEzArjelbR6HCkgn-70" target="WzEfYEzArjelbR6HCkgn-73" edge="1">
          <mxGeometry width="50" height="50" relative="1" as="geometry">
            <mxPoint x="160" y="1350" as="sourcePoint" />
            <mxPoint x="210" y="1300" as="targetPoint" />
          </mxGeometry>
        </mxCell>
        <mxCell id="WzEfYEzArjelbR6HCkgn-77" value="gives" style="rhombus;whiteSpace=wrap;html=1;" parent="1" vertex="1">
          <mxGeometry y="1040" width="80" height="80" as="geometry" />
        </mxCell>
        <mxCell id="WzEfYEzArjelbR6HCkgn-82" value="agreed_amount" style="ellipse;whiteSpace=wrap;html=1;dashed=1;" parent="1" vertex="1">
          <mxGeometry x="150" y="1050" width="108" height="60" as="geometry" />
        </mxCell>
        <mxCell id="WzEfYEzArjelbR6HCkgn-83" value="" style="endArrow=none;html=1;rounded=0;" parent="1" source="WzEfYEzArjelbR6HCkgn-77" edge="1">
          <mxGeometry width="50" height="50" relative="1" as="geometry">
            <mxPoint x="80" y="1130" as="sourcePoint" />
            <mxPoint x="150.71067811865476" y="1080" as="targetPoint" />
          </mxGeometry>
        </mxCell>
        <mxCell id="WzEfYEzArjelbR6HCkgn-86" value="property" style="rounded=0;whiteSpace=wrap;html=1;" parent="1" vertex="1">
          <mxGeometry x="-750" y="1300" width="120" height="60" as="geometry" />
        </mxCell>
        <mxCell id="WzEfYEzArjelbR6HCkgn-88" value="&lt;font color=&quot;#ff0000&quot;&gt;ISA&lt;/font&gt;" style="triangle;whiteSpace=wrap;html=1;direction=north;" parent="1" vertex="1">
          <mxGeometry x="-725" y="1470" width="70" height="70" as="geometry" />
        </mxCell>
        <mxCell id="WzEfYEzArjelbR6HCkgn-91" value="" style="shape=link;html=1;rounded=0;exitX=0.5;exitY=1;exitDx=0;exitDy=0;entryX=1;entryY=0.5;entryDx=0;entryDy=0;" parent="1" source="WzEfYEzArjelbR6HCkgn-86" target="WzEfYEzArjelbR6HCkgn-88" edge="1">
          <mxGeometry width="100" relative="1" as="geometry">
            <mxPoint x="-730" y="1410" as="sourcePoint" />
            <mxPoint x="-630" y="1410" as="targetPoint" />
          </mxGeometry>
        </mxCell>
        <mxCell id="WzEfYEzArjelbR6HCkgn-92" value="for_rent" style="rounded=0;whiteSpace=wrap;html=1;direction=east;" parent="1" vertex="1">
          <mxGeometry x="-615" y="1620" width="120" height="60" as="geometry" />
        </mxCell>
        <mxCell id="WzEfYEzArjelbR6HCkgn-93" value="for_sale" style="rounded=0;whiteSpace=wrap;html=1;" parent="1" vertex="1">
          <mxGeometry x="-900" y="1620" width="120" height="60" as="geometry" />
        </mxCell>
        <mxCell id="WzEfYEzArjelbR6HCkgn-96" value="pay_per_mnth" style="ellipse;whiteSpace=wrap;html=1;direction=east;" parent="1" vertex="1">
          <mxGeometry x="-580" y="1770" width="110" height="60" as="geometry" />
        </mxCell>
        <mxCell id="WzEfYEzArjelbR6HCkgn-97" value="price" style="ellipse;whiteSpace=wrap;html=1;" parent="1" vertex="1">
          <mxGeometry x="-900" y="1770" width="90" height="60" as="geometry" />
        </mxCell>
        <mxCell id="WzEfYEzArjelbR6HCkgn-98" value="" style="endArrow=none;html=1;rounded=0;entryX=0.5;entryY=1;entryDx=0;entryDy=0;exitX=0.5;exitY=0;exitDx=0;exitDy=0;" parent="1" source="WzEfYEzArjelbR6HCkgn-96" target="WzEfYEzArjelbR6HCkgn-92" edge="1">
          <mxGeometry width="50" height="50" relative="1" as="geometry">
            <mxPoint x="-566" y="1730" as="sourcePoint" />
            <mxPoint x="-516" y="1680" as="targetPoint" />
          </mxGeometry>
        </mxCell>
        <mxCell id="WzEfYEzArjelbR6HCkgn-99" value="" style="endArrow=none;html=1;rounded=0;entryX=0.5;entryY=1;entryDx=0;entryDy=0;exitX=0.5;exitY=0;exitDx=0;exitDy=0;" parent="1" source="WzEfYEzArjelbR6HCkgn-97" target="WzEfYEzArjelbR6HCkgn-93" edge="1">
          <mxGeometry width="50" height="50" relative="1" as="geometry">
            <mxPoint x="-923.75" y="1770" as="sourcePoint" />
            <mxPoint x="-873.75" y="1720" as="targetPoint" />
          </mxGeometry>
        </mxCell>
        <mxCell id="WzEfYEzArjelbR6HCkgn-100" value="owns" style="rhombus;whiteSpace=wrap;html=1;" parent="1" vertex="1">
          <mxGeometry x="-380" y="1290" width="80" height="80" as="geometry" />
        </mxCell>
        <mxCell id="WzEfYEzArjelbR6HCkgn-101" value="" style="endArrow=classic;html=1;rounded=0;exitX=1;exitY=0.5;exitDx=0;exitDy=0;entryX=0;entryY=0.5;entryDx=0;entryDy=0;strokeWidth=6;" parent="1" source="WzEfYEzArjelbR6HCkgn-86" target="WzEfYEzArjelbR6HCkgn-100" edge="1">
          <mxGeometry width="50" height="50" relative="1" as="geometry">
            <mxPoint x="-590" y="1350" as="sourcePoint" />
            <mxPoint x="-390" y="1340" as="targetPoint" />
          </mxGeometry>
        </mxCell>
        <mxCell id="WzEfYEzArjelbR6HCkgn-102" value="" style="endArrow=none;html=1;rounded=0;exitX=1;exitY=0.5;exitDx=0;exitDy=0;entryX=0;entryY=0.5;entryDx=0;entryDy=0;strokeWidth=6;" parent="1" source="WzEfYEzArjelbR6HCkgn-100" target="WzEfYEzArjelbR6HCkgn-70" edge="1">
          <mxGeometry width="50" height="50" relative="1" as="geometry">
            <mxPoint x="-200" y="1360" as="sourcePoint" />
            <mxPoint x="-150" y="1310" as="targetPoint" />
          </mxGeometry>
        </mxCell>
        <mxCell id="WzEfYEzArjelbR6HCkgn-103" value="contract" style="rounded=0;whiteSpace=wrap;html=1;" parent="1" vertex="1">
          <mxGeometry x="-1440" y="1300" width="120" height="60" as="geometry" />
        </mxCell>
        <mxCell id="WzEfYEzArjelbR6HCkgn-104" value="&lt;u&gt;cntr_ID&lt;/u&gt;" style="ellipse;whiteSpace=wrap;html=1;" parent="1" vertex="1">
          <mxGeometry x="-1560" y="1240" width="90" height="50" as="geometry" />
        </mxCell>
        <mxCell id="WzEfYEzArjelbR6HCkgn-109" value="" style="endArrow=none;html=1;rounded=0;exitX=1;exitY=0;exitDx=0;exitDy=0;entryX=0;entryY=1;entryDx=0;entryDy=0;" parent="1" source="e0X7quEh-rRLCPLy9t2W-1" target="WzEfYEzArjelbR6HCkgn-103" edge="1">
          <mxGeometry width="50" height="50" relative="1" as="geometry">
            <mxPoint x="-1560" y="1420" as="sourcePoint" />
            <mxPoint x="-1510" y="1370" as="targetPoint" />
          </mxGeometry>
        </mxCell>
        <mxCell id="WzEfYEzArjelbR6HCkgn-110" value="" style="endArrow=none;html=1;rounded=0;entryX=0;entryY=0;entryDx=0;entryDy=0;" parent="1" source="WzEfYEzArjelbR6HCkgn-104" target="WzEfYEzArjelbR6HCkgn-103" edge="1">
          <mxGeometry width="50" height="50" relative="1" as="geometry">
            <mxPoint x="-1495" y="1300" as="sourcePoint" />
            <mxPoint x="-1495" y="1320.7106781186549" as="targetPoint" />
          </mxGeometry>
        </mxCell>
        <mxCell id="WzEfYEzArjelbR6HCkgn-111" value="" style="endArrow=none;html=1;rounded=0;entryX=0.5;entryY=0;entryDx=0;entryDy=0;exitX=0.5;exitY=1;exitDx=0;exitDy=0;" parent="1" source="e0X7quEh-rRLCPLy9t2W-2" target="WzEfYEzArjelbR6HCkgn-103" edge="1">
          <mxGeometry width="50" height="50" relative="1" as="geometry">
            <mxPoint x="-1385" y="1280" as="sourcePoint" />
            <mxPoint x="-1385" y="1300.7106781186549" as="targetPoint" />
          </mxGeometry>
        </mxCell>
        <mxCell id="WzEfYEzArjelbR6HCkgn-112" value="" style="endArrow=none;html=1;rounded=0;entryX=0.5;entryY=1;entryDx=0;entryDy=0;exitX=0.5;exitY=0;exitDx=0;exitDy=0;" parent="1" source="e0X7quEh-rRLCPLy9t2W-3" target="WzEfYEzArjelbR6HCkgn-103" edge="1">
          <mxGeometry width="50" height="50" relative="1" as="geometry">
            <mxPoint x="-1370.7106781186549" y="1280" as="sourcePoint" />
            <mxPoint x="-1370.7106781186549" y="1230" as="targetPoint" />
          </mxGeometry>
        </mxCell>
        <mxCell id="WzEfYEzArjelbR6HCkgn-116" style="edgeStyle=orthogonalEdgeStyle;rounded=0;orthogonalLoop=1;jettySize=auto;html=1;" parent="1" source="WzEfYEzArjelbR6HCkgn-113" target="WzEfYEzArjelbR6HCkgn-86" edge="1">
          <mxGeometry relative="1" as="geometry" />
        </mxCell>
        <mxCell id="uMk0zpLiCvmzPtytg0uk-53" style="edgeStyle=orthogonalEdgeStyle;rounded=0;orthogonalLoop=1;jettySize=auto;html=1;entryX=1;entryY=0.5;entryDx=0;entryDy=0;" edge="1" parent="1" source="WzEfYEzArjelbR6HCkgn-113" target="WzEfYEzArjelbR6HCkgn-103">
          <mxGeometry relative="1" as="geometry" />
        </mxCell>
        <mxCell id="WzEfYEzArjelbR6HCkgn-113" value="has" style="rhombus;whiteSpace=wrap;html=1;" parent="1" vertex="1">
          <mxGeometry x="-1070" y="1290" width="80" height="80" as="geometry" />
        </mxCell>
        <mxCell id="WzEfYEzArjelbR6HCkgn-117" value="size" style="ellipse;whiteSpace=wrap;html=1;" parent="1" vertex="1">
          <mxGeometry x="-590" y="1205" width="70" height="50" as="geometry" />
        </mxCell>
        <mxCell id="WzEfYEzArjelbR6HCkgn-118" value="date_listed" style="ellipse;whiteSpace=wrap;html=1;" parent="1" vertex="1">
          <mxGeometry x="-680" y="1155" width="90" height="50" as="geometry" />
        </mxCell>
        <mxCell id="WzEfYEzArjelbR6HCkgn-119" value="&lt;u&gt;property_ssn&lt;/u&gt;" style="ellipse;whiteSpace=wrap;html=1;" parent="1" vertex="1">
          <mxGeometry x="-790" y="1155" width="100" height="60" as="geometry" />
        </mxCell>
        <mxCell id="WzEfYEzArjelbR6HCkgn-120" value="address" style="ellipse;whiteSpace=wrap;html=1;" parent="1" vertex="1">
          <mxGeometry x="-870" y="1220" width="80" height="50" as="geometry" />
        </mxCell>
        <mxCell id="WzEfYEzArjelbR6HCkgn-121" value="" style="endArrow=none;html=1;rounded=0;entryX=0.5;entryY=0;entryDx=0;entryDy=0;" parent="1" source="WzEfYEzArjelbR6HCkgn-119" target="WzEfYEzArjelbR6HCkgn-86" edge="1">
          <mxGeometry width="50" height="50" relative="1" as="geometry">
            <mxPoint x="-740" y="1265" as="sourcePoint" />
            <mxPoint x="-740" y="1285.7106781186549" as="targetPoint" />
          </mxGeometry>
        </mxCell>
        <mxCell id="WzEfYEzArjelbR6HCkgn-122" value="" style="endArrow=none;html=1;rounded=0;entryX=0.25;entryY=0;entryDx=0;entryDy=0;" parent="1" source="WzEfYEzArjelbR6HCkgn-120" target="WzEfYEzArjelbR6HCkgn-86" edge="1">
          <mxGeometry width="50" height="50" relative="1" as="geometry">
            <mxPoint x="-790" y="1295" as="sourcePoint" />
            <mxPoint x="-719.2893218813452" y="1245" as="targetPoint" />
          </mxGeometry>
        </mxCell>
        <mxCell id="WzEfYEzArjelbR6HCkgn-123" value="" style="endArrow=none;html=1;rounded=0;entryX=0.75;entryY=0;entryDx=0;entryDy=0;" parent="1" source="WzEfYEzArjelbR6HCkgn-118" target="WzEfYEzArjelbR6HCkgn-86" edge="1">
          <mxGeometry width="50" height="50" relative="1" as="geometry">
            <mxPoint x="-635" y="1255" as="sourcePoint" />
            <mxPoint x="-635" y="1275.7106781186549" as="targetPoint" />
          </mxGeometry>
        </mxCell>
        <mxCell id="WzEfYEzArjelbR6HCkgn-124" value="" style="endArrow=none;html=1;rounded=0;entryX=1;entryY=0;entryDx=0;entryDy=0;" parent="1" source="WzEfYEzArjelbR6HCkgn-117" target="WzEfYEzArjelbR6HCkgn-86" edge="1">
          <mxGeometry width="50" height="50" relative="1" as="geometry">
            <mxPoint x="-555" y="1305" as="sourcePoint" />
            <mxPoint x="-555" y="1325.7106781186549" as="targetPoint" />
          </mxGeometry>
        </mxCell>
        <mxCell id="e0X7quEh-rRLCPLy9t2W-1" value="&lt;span style=&quot;border-bottom: 1px dotted&quot;&gt;property_ssn&lt;/span&gt;" style="ellipse;whiteSpace=wrap;html=1;align=center;" parent="1" vertex="1">
          <mxGeometry x="-1565" y="1400" width="100" height="40" as="geometry" />
        </mxCell>
        <mxCell id="e0X7quEh-rRLCPLy9t2W-2" value="&lt;span style=&quot;border-bottom: 1px dotted&quot;&gt;agent_ID&lt;/span&gt;" style="ellipse;whiteSpace=wrap;html=1;align=center;" parent="1" vertex="1">
          <mxGeometry x="-1420" y="1180" width="100" height="40" as="geometry" />
        </mxCell>
        <mxCell id="e0X7quEh-rRLCPLy9t2W-3" value="&lt;span style=&quot;border-bottom: 1px dotted&quot;&gt;client_ID&lt;/span&gt;" style="ellipse;whiteSpace=wrap;html=1;align=center;" parent="1" vertex="1">
          <mxGeometry x="-1430" y="1440" width="100" height="40" as="geometry" />
        </mxCell>
        <mxCell id="uMk0zpLiCvmzPtytg0uk-1" value="old_client" style="rounded=0;whiteSpace=wrap;html=1;" vertex="1" parent="1">
          <mxGeometry x="400" y="1620" width="120" height="60" as="geometry" />
        </mxCell>
        <mxCell id="uMk0zpLiCvmzPtytg0uk-2" value="writes" style="rhombus;whiteSpace=wrap;html=1;" vertex="1" parent="1">
          <mxGeometry x="420" y="1760" width="80" height="80" as="geometry" />
        </mxCell>
        <mxCell id="uMk0zpLiCvmzPtytg0uk-4" value="" style="endArrow=none;html=1;rounded=0;exitX=1;exitY=1;exitDx=0;exitDy=0;entryX=0;entryY=0;entryDx=0;entryDy=0;" edge="1" parent="1" source="uMk0zpLiCvmzPtytg0uk-2" target="WzEfYEzArjelbR6HCkgn-1">
          <mxGeometry width="50" height="50" relative="1" as="geometry">
            <mxPoint x="630" y="1680" as="sourcePoint" />
            <mxPoint x="1060" y="1550" as="targetPoint" />
          </mxGeometry>
        </mxCell>
        <mxCell id="uMk0zpLiCvmzPtytg0uk-7" value="" style="endArrow=none;html=1;rounded=0;exitX=0.5;exitY=1;exitDx=0;exitDy=0;entryX=0.5;entryY=0;entryDx=0;entryDy=0;" edge="1" parent="1" source="uMk0zpLiCvmzPtytg0uk-1" target="uMk0zpLiCvmzPtytg0uk-2">
          <mxGeometry width="50" height="50" relative="1" as="geometry">
            <mxPoint x="330" y="1800" as="sourcePoint" />
            <mxPoint x="380" y="1750" as="targetPoint" />
          </mxGeometry>
        </mxCell>
        <mxCell id="uMk0zpLiCvmzPtytg0uk-8" value="lived_in" style="rhombus;whiteSpace=wrap;html=1;" vertex="1" parent="1">
          <mxGeometry x="-170" y="1610" width="80" height="80" as="geometry" />
        </mxCell>
        <mxCell id="uMk0zpLiCvmzPtytg0uk-10" value="" style="endArrow=none;html=1;rounded=0;exitX=1;exitY=0.5;exitDx=0;exitDy=0;entryX=0;entryY=0.5;entryDx=0;entryDy=0;" edge="1" parent="1" source="WzEfYEzArjelbR6HCkgn-92" target="uMk0zpLiCvmzPtytg0uk-8">
          <mxGeometry width="50" height="50" relative="1" as="geometry">
            <mxPoint x="-490" y="1500" as="sourcePoint" />
            <mxPoint x="-440" y="1450" as="targetPoint" />
          </mxGeometry>
        </mxCell>
        <mxCell id="uMk0zpLiCvmzPtytg0uk-11" value="" style="endArrow=none;html=1;rounded=0;strokeWidth=7;exitX=0;exitY=0.5;exitDx=0;exitDy=0;entryX=1;entryY=0.5;entryDx=0;entryDy=0;" edge="1" parent="1" source="uMk0zpLiCvmzPtytg0uk-1" target="uMk0zpLiCvmzPtytg0uk-8">
          <mxGeometry width="50" height="50" relative="1" as="geometry">
            <mxPoint x="-210" y="1660" as="sourcePoint" />
            <mxPoint x="-160" y="1610" as="targetPoint" />
          </mxGeometry>
        </mxCell>
        <mxCell id="uMk0zpLiCvmzPtytg0uk-19" value="credit_score" style="ellipse;whiteSpace=wrap;html=1;" vertex="1" parent="1">
          <mxGeometry x="940" y="1240" width="70" height="40" as="geometry" />
        </mxCell>
        <mxCell id="uMk0zpLiCvmzPtytg0uk-29" value="&lt;font color=&quot;#ff0000&quot;&gt;ISA&lt;/font&gt;" style="triangle;whiteSpace=wrap;html=1;direction=north;" vertex="1" parent="1">
          <mxGeometry x="565" y="1410" width="70" height="70" as="geometry" />
        </mxCell>
        <mxCell id="uMk0zpLiCvmzPtytg0uk-30" value="" style="endArrow=none;html=1;rounded=0;entryX=0.5;entryY=1;entryDx=0;entryDy=0;exitX=1;exitY=0.5;exitDx=0;exitDy=0;" edge="1" parent="1" source="uMk0zpLiCvmzPtytg0uk-29" target="WzEfYEzArjelbR6HCkgn-8">
          <mxGeometry width="50" height="50" relative="1" as="geometry">
            <mxPoint x="500" y="1390" as="sourcePoint" />
            <mxPoint x="550" y="1340" as="targetPoint" />
          </mxGeometry>
        </mxCell>
        <mxCell id="uMk0zpLiCvmzPtytg0uk-31" value="new_client" style="rounded=0;whiteSpace=wrap;html=1;" vertex="1" parent="1">
          <mxGeometry x="680" y="1620" width="120" height="60" as="geometry" />
        </mxCell>
        <mxCell id="uMk0zpLiCvmzPtytg0uk-32" value="" style="endArrow=none;html=1;rounded=0;exitX=1;exitY=0;exitDx=0;exitDy=0;entryX=0;entryY=0.25;entryDx=0;entryDy=0;" edge="1" parent="1" source="uMk0zpLiCvmzPtytg0uk-1" target="uMk0zpLiCvmzPtytg0uk-29">
          <mxGeometry width="50" height="50" relative="1" as="geometry">
            <mxPoint x="460" y="1580" as="sourcePoint" />
            <mxPoint x="510" y="1530" as="targetPoint" />
          </mxGeometry>
        </mxCell>
        <mxCell id="uMk0zpLiCvmzPtytg0uk-33" value="" style="endArrow=none;html=1;rounded=0;entryX=0;entryY=0.75;entryDx=0;entryDy=0;exitX=0;exitY=0;exitDx=0;exitDy=0;" edge="1" parent="1" source="uMk0zpLiCvmzPtytg0uk-31" target="uMk0zpLiCvmzPtytg0uk-29">
          <mxGeometry width="50" height="50" relative="1" as="geometry">
            <mxPoint x="620" y="1620" as="sourcePoint" />
            <mxPoint x="670" y="1570" as="targetPoint" />
          </mxGeometry>
        </mxCell>
        <mxCell id="uMk0zpLiCvmzPtytg0uk-34" value="stay_length" style="ellipse;whiteSpace=wrap;html=1;" vertex="1" parent="1">
          <mxGeometry x="370" y="1520" width="90" height="50" as="geometry" />
        </mxCell>
        <mxCell id="uMk0zpLiCvmzPtytg0uk-35" value="" style="endArrow=none;html=1;rounded=0;exitX=0.5;exitY=0;exitDx=0;exitDy=0;entryX=0.5;entryY=1;entryDx=0;entryDy=0;" edge="1" parent="1" source="uMk0zpLiCvmzPtytg0uk-1" target="uMk0zpLiCvmzPtytg0uk-34">
          <mxGeometry width="50" height="50" relative="1" as="geometry">
            <mxPoint x="310" y="1630" as="sourcePoint" />
            <mxPoint x="360" y="1580" as="targetPoint" />
          </mxGeometry>
        </mxCell>
        <mxCell id="uMk0zpLiCvmzPtytg0uk-42" style="edgeStyle=orthogonalEdgeStyle;rounded=0;orthogonalLoop=1;jettySize=auto;html=1;entryX=1;entryY=0.5;entryDx=0;entryDy=0;strokeWidth=5;" edge="1" parent="1" source="uMk0zpLiCvmzPtytg0uk-36" target="WzEfYEzArjelbR6HCkgn-32">
          <mxGeometry relative="1" as="geometry" />
        </mxCell>
        <mxCell id="uMk0zpLiCvmzPtytg0uk-36" value="bank" style="rounded=0;whiteSpace=wrap;html=1;" vertex="1" parent="1">
          <mxGeometry x="1100" y="980" width="120" height="60" as="geometry" />
        </mxCell>
        <mxCell id="uMk0zpLiCvmzPtytg0uk-37" value="&lt;u&gt;bank_id&lt;/u&gt;" style="ellipse;whiteSpace=wrap;html=1;" vertex="1" parent="1">
          <mxGeometry x="1120" y="890" width="80" height="40" as="geometry" />
        </mxCell>
        <mxCell id="uMk0zpLiCvmzPtytg0uk-38" value="address" style="ellipse;whiteSpace=wrap;html=1;" vertex="1" parent="1">
          <mxGeometry x="1250" y="890" width="80" height="50" as="geometry" />
        </mxCell>
        <mxCell id="uMk0zpLiCvmzPtytg0uk-39" value="website" style="ellipse;whiteSpace=wrap;html=1;" vertex="1" parent="1">
          <mxGeometry x="1250" y="1065" width="80" height="50" as="geometry" />
        </mxCell>
        <mxCell id="uMk0zpLiCvmzPtytg0uk-40" value="name" style="ellipse;whiteSpace=wrap;html=1;" vertex="1" parent="1">
          <mxGeometry x="1125" y="1100" width="70" height="50" as="geometry" />
        </mxCell>
        <mxCell id="uMk0zpLiCvmzPtytg0uk-43" value="" style="endArrow=none;html=1;rounded=0;entryX=0.5;entryY=1;entryDx=0;entryDy=0;exitX=0.5;exitY=0;exitDx=0;exitDy=0;" edge="1" parent="1" source="uMk0zpLiCvmzPtytg0uk-36" target="uMk0zpLiCvmzPtytg0uk-37">
          <mxGeometry width="50" height="50" relative="1" as="geometry">
            <mxPoint x="1120" y="1010" as="sourcePoint" />
            <mxPoint x="1170" y="960" as="targetPoint" />
          </mxGeometry>
        </mxCell>
        <mxCell id="uMk0zpLiCvmzPtytg0uk-45" value="" style="endArrow=none;html=1;rounded=0;entryX=0.5;entryY=1;entryDx=0;entryDy=0;" edge="1" parent="1" source="uMk0zpLiCvmzPtytg0uk-40" target="uMk0zpLiCvmzPtytg0uk-36">
          <mxGeometry width="50" height="50" relative="1" as="geometry">
            <mxPoint x="1155" y="1079.2893218813451" as="sourcePoint" />
            <mxPoint x="1155" y="1029.2893218813451" as="targetPoint" />
          </mxGeometry>
        </mxCell>
        <mxCell id="uMk0zpLiCvmzPtytg0uk-46" value="" style="endArrow=none;html=1;rounded=0;exitX=1;exitY=0;exitDx=0;exitDy=0;entryX=0;entryY=1;entryDx=0;entryDy=0;" edge="1" parent="1" source="uMk0zpLiCvmzPtytg0uk-36" target="uMk0zpLiCvmzPtytg0uk-38">
          <mxGeometry width="50" height="50" relative="1" as="geometry">
            <mxPoint x="1290" y="1020" as="sourcePoint" />
            <mxPoint x="1330" y="960" as="targetPoint" />
          </mxGeometry>
        </mxCell>
        <mxCell id="uMk0zpLiCvmzPtytg0uk-47" value="" style="endArrow=none;html=1;rounded=0;exitX=1;exitY=1;exitDx=0;exitDy=0;entryX=0;entryY=0;entryDx=0;entryDy=0;" edge="1" parent="1" source="uMk0zpLiCvmzPtytg0uk-36" target="uMk0zpLiCvmzPtytg0uk-39">
          <mxGeometry width="50" height="50" relative="1" as="geometry">
            <mxPoint x="1250" y="1060" as="sourcePoint" />
            <mxPoint x="1300" y="1010" as="targetPoint" />
          </mxGeometry>
        </mxCell>
        <mxCell id="uMk0zpLiCvmzPtytg0uk-48" value="" style="endArrow=none;html=1;rounded=0;exitX=1;exitY=0;exitDx=0;exitDy=0;entryX=0.25;entryY=1;entryDx=0;entryDy=0;" edge="1" parent="1" source="WzEfYEzArjelbR6HCkgn-13" target="WzEfYEzArjelbR6HCkgn-8">
          <mxGeometry width="50" height="50" relative="1" as="geometry">
            <mxPoint x="820" y="1200" as="sourcePoint" />
            <mxPoint x="560" y="1278" as="targetPoint" />
          </mxGeometry>
        </mxCell>
        <mxCell id="uMk0zpLiCvmzPtytg0uk-49" value="assigns" style="rhombus;whiteSpace=wrap;html=1;" vertex="1" parent="1">
          <mxGeometry x="850" y="1145" width="60" height="60" as="geometry" />
        </mxCell>
        <mxCell id="uMk0zpLiCvmzPtytg0uk-50" value="" style="endArrow=classic;html=1;rounded=0;exitX=1;exitY=0.5;exitDx=0;exitDy=0;entryX=0;entryY=1;entryDx=0;entryDy=0;strokeWidth=6;" edge="1" parent="1" source="WzEfYEzArjelbR6HCkgn-8" target="uMk0zpLiCvmzPtytg0uk-49">
          <mxGeometry width="50" height="50" relative="1" as="geometry">
            <mxPoint x="730" y="1290" as="sourcePoint" />
            <mxPoint x="780" y="1240" as="targetPoint" />
          </mxGeometry>
        </mxCell>
        <mxCell id="uMk0zpLiCvmzPtytg0uk-51" value="" style="endArrow=classic;html=1;rounded=0;exitX=0;exitY=1;exitDx=0;exitDy=0;entryX=1;entryY=0;entryDx=0;entryDy=0;strokeWidth=6;" edge="1" parent="1" source="uMk0zpLiCvmzPtytg0uk-36" target="uMk0zpLiCvmzPtytg0uk-49">
          <mxGeometry width="50" height="50" relative="1" as="geometry">
            <mxPoint x="1100" y="1080" as="sourcePoint" />
            <mxPoint x="895" y="1140" as="targetPoint" />
          </mxGeometry>
        </mxCell>
        <mxCell id="uMk0zpLiCvmzPtytg0uk-52" value="" style="endArrow=none;html=1;rounded=0;exitX=0;exitY=0;exitDx=0;exitDy=0;entryX=1;entryY=1;entryDx=0;entryDy=0;" edge="1" parent="1" source="uMk0zpLiCvmzPtytg0uk-19" target="uMk0zpLiCvmzPtytg0uk-49">
          <mxGeometry width="50" height="50" relative="1" as="geometry">
            <mxPoint x="870" y="1260" as="sourcePoint" />
            <mxPoint x="910" y="1210" as="targetPoint" />
          </mxGeometry>
        </mxCell>
        <mxCell id="uMk0zpLiCvmzPtytg0uk-55" value="" style="endArrow=none;html=1;rounded=0;exitX=1;exitY=0;exitDx=0;exitDy=0;entryX=0;entryY=0.25;entryDx=0;entryDy=0;" edge="1" parent="1" source="WzEfYEzArjelbR6HCkgn-93" target="WzEfYEzArjelbR6HCkgn-88">
          <mxGeometry width="50" height="50" relative="1" as="geometry">
            <mxPoint x="-830" y="1560" as="sourcePoint" />
            <mxPoint x="-780" y="1510" as="targetPoint" />
          </mxGeometry>
        </mxCell>
        <mxCell id="uMk0zpLiCvmzPtytg0uk-56" value="" style="endArrow=none;html=1;rounded=0;exitX=0;exitY=0;exitDx=0;exitDy=0;entryX=0;entryY=0.75;entryDx=0;entryDy=0;" edge="1" parent="1" source="WzEfYEzArjelbR6HCkgn-92" target="WzEfYEzArjelbR6HCkgn-88">
          <mxGeometry width="50" height="50" relative="1" as="geometry">
            <mxPoint x="-630" y="1580" as="sourcePoint" />
            <mxPoint x="-580" y="1530" as="targetPoint" />
          </mxGeometry>
        </mxCell>
      </root>
    </mxGraphModel>
  </diagram>
</mxfile>
